<svg xmlns="http://www.w3.org/2000/svg" viewBox="0 0 64 64">
  <!-- Steven's Ag Tools — rising sun over furrowed field -->
  <rect width="64" height="64" rx="14" fill="#1f4e2b"/>
  <path fill="#f6c244" d="M46.37 22.03 L46.37 25.97 L39.93 25.09 L39.41 27.02 L43.80 28.82 L42.07 31.81 L38.32 28.90 L36.90 30.32 L39.03 33.06 L36.33 34.62 L35.02 31.41 L33.09 31.93 L33.49 34.90 L30.51 34.90 L30.91 31.93 L28.98 31.41 L27.67 34.62 L24.97 33.06 L27.10 30.32 L25.68 28.90 L21.93 31.81 L20.20 28.82 L24.59 27.02 L24.07 25.09 L17.63 25.97 L17.63 22.03 L24.07 22.91 L24.59 20.98 L16.95 17.86 L19.16 14.04 L25.68 19.10 L27.10 17.68 L21.26 10.15 L25.38 7.77 L28.98 16.59 L30.91 16.07 L29.56 6.17 L34.44 6.17 L33.09 16.07 L35.02 16.59 L38.62 7.77 L42.74 10.15 L36.90 17.68 L38.32 19.10 L44.84 14.04 L47.05 17.86 L39.41 20.98 L39.93 22.91 Z"/>
  <circle cx="32" cy="24" r="3.1" fill="#1f4e2b"/>
  <g stroke="#a7d8ae" stroke-width="3" stroke-linecap="round" fill="none">
    <path d="M10 42 q22 -7 44 0"/>
    <path d="M10 50 q22 -7 44 0"/>
    <path d="M14 57 q18 -6 36 0"/>
  </g>
</svg>
