<svg xmlns="http://www.w3.org/2000/svg" viewBox="0 0 64 64">
  <!-- Steven's Ag Tools — rising sun over furrowed field -->
  <rect width="64" height="64" rx="14" fill="#1f4e2b"/>
  <path fill="#f6c244" d="M42.90 22.51 L42.90 25.49 L39.93 25.09 L39.41 27.02 L42.18 28.16 L40.69 30.74 L38.32 28.90 L36.90 30.32 L38.74 32.69 L36.16 34.18 L35.02 31.41 L33.09 31.93 L33.49 34.90 L30.51 34.90 L30.91 31.93 L28.98 31.41 L27.84 34.18 L25.26 32.69 L27.10 30.32 L25.68 28.90 L23.31 30.74 L21.82 28.16 L24.59 27.02 L24.07 25.09 L21.10 25.49 L21.10 22.51 L24.07 22.91 L24.59 20.98 L21.82 19.84 L23.31 17.26 L25.68 19.10 L27.10 17.68 L25.26 15.31 L27.84 13.82 L28.98 16.59 L30.91 16.07 L30.51 13.10 L33.49 13.10 L33.09 16.07 L35.02 16.59 L36.16 13.82 L38.74 15.31 L36.90 17.68 L38.32 19.10 L40.69 17.26 L42.18 19.84 L39.41 20.98 L39.93 22.91 Z"/>
  <circle cx="32" cy="24" r="3.1" fill="#1f4e2b"/>
  <g stroke="#a7d8ae" stroke-width="3" stroke-linecap="round" fill="none">
    <path d="M10 42 q22 -7 44 0"/>
    <path d="M10 50 q22 -7 44 0"/>
    <path d="M14 57 q18 -6 36 0"/>
  </g>
</svg>
